<svg xmlns="http://www.w3.org/2000/svg" viewBox="0 0 100 100">
  <defs>
    <linearGradient id="g" gradientUnits="userSpaceOnUse" x1="50" y1="8" x2="50" y2="92">
      <stop offset="0%" stop-color="#0b6d78"/>
      <stop offset="100%" stop-color="#8b3a2a"/>
    </linearGradient>
  </defs>
  <rect width="100" height="100" fill="#f0ece0"/>
  <path d="M81.26024000000001 92.00012H79.8452L76.37192 89.81324Q74.82824000000001 84.92492 72.1268 79.715Q69.42536 74.50507999999999 65.11592 69.80972Q60.80648 65.11435999999999 54.1172 61.76971999999999Q51.93032 65.50027999999999 48.19976 68.13739999999999Q44.4692 70.77452 39.3236 70.77452Q32.37704 70.77452 28.77512 66.59371999999999Q25.1732 62.41292 25.1732 57.395959999999995Q25.1732 52.507639999999995 28.710800000000003 48.455479999999994Q32.248400000000004 44.403319999999994 38.80904 44.403319999999994Q42.5396 44.403319999999994 46.65608 46.20428Q48.07112 45.17515999999999 48.07112 42.47371999999999Q48.07112 38.743159999999996 44.983760000000004 35.076919999999994Q41.8964 31.410679999999992 37.26536 28.323319999999992Q32.63432 25.23595999999999 27.87464 23.11339999999999Q23.11496 20.99083999999999 19.770319999999998 20.34764L8.45 9.027319999999989V7.998199999999997H83.83304000000001L91.55144000000001 15.7166V16.74571999999999H80.61704V60.997879999999995Q80.61704 68.33036 80.74568000000001 75.27691999999999Q80.87432000000001 82.22348 81.26024000000001 92.00012ZM70.45448 16.74571999999999H35.85032L35.72168 17.003Q47.6852 26.522359999999992 52.5092 35.076919999999994Q57.3332 43.631479999999996 57.3332 50.70667999999999Q57.3332 51.99307999999999 57.075919999999996 53.40812Q61.1924 57.138679999999994 64.79432 61.51244Q68.39624 65.8862 71.09768 70.00268L71.48360000000001 69.74539999999999Q70.96904 66.5294 70.77608000000001 62.15563999999999Q70.58312000000001 57.781879999999994 70.5188 51.414199999999994Q70.45448 45.046519999999994 70.45448 35.65579999999999Z" fill="url(#g)"/>
</svg>